<svg width="95" height="66" viewBox="0 0 95 66" fill="none" xmlns="http://www.w3.org/2000/svg">
<path d="M22.7965 44.84C21.208 46.9781 18.9842 51.9876 22.7965 54.92C27.5619 50.9491 22.7965 44.84 22.7965 44.84Z" fill="#F2EB92"/>
<path d="M22.7991 48.2C21.846 49.4472 20.5117 52.3694 22.7991 54.08C25.6584 51.7636 22.7991 48.2 22.7991 48.2Z" fill="#FF8AAE"/>
<path d="M45.1769 44.84C43.2707 46.9781 40.6021 51.9876 45.1769 54.92C50.8954 50.9491 45.1769 44.84 45.1769 44.84Z" fill="#F2EB92"/>
<path d="M45.6031 48.2C44.65 49.4472 43.3157 52.3694 45.6031 54.08C48.4623 51.7636 45.6031 48.2 45.6031 48.2Z" fill="#FF8AAE"/>
<path d="M27.5563 45.5467C26.2945 47.8575 24.8805 52.9874 29.3192 55.0209C33.5321 50.3854 27.5563 45.5467 27.5563 45.5467Z" fill="#F2EB92"/>
<path d="M28.2286 48.3923C27.5866 49.7701 26.9015 52.8475 29.297 54.1342C31.4821 51.3926 28.2286 48.3923 28.2286 48.3923Z" fill="#FF8AAE"/>
<path d="M34.609 45.0672C32.7414 46.9285 29.9259 51.451 33.6047 54.6504C38.9641 51.3898 34.609 45.0672 34.609 45.0672Z" fill="#F2EB92"/>
<path d="M34.4443 47.9857C33.4365 49.1266 31.9039 51.8855 33.8356 53.7937C36.7113 51.7789 34.4443 47.9857 34.4443 47.9857Z" fill="#FF8AAE"/>
<path d="M39.3306 45.2978C37.813 47.4511 35.8224 52.3881 40.0002 54.9098C44.7151 50.7802 39.3306 45.2978 39.3306 45.2978Z" fill="#F2EB92"/>
<path d="M39.6736 48.2009C38.8784 49.4973 37.8463 52.4774 40.0795 54.0264C42.5635 51.5493 39.6736 48.2009 39.6736 48.2009Z" fill="#FF8AAE"/>
<path d="M57 65H11V61.4H14.3153C14.3153 57.44 16.5255 56.15 17.6306 56H51.6126C53.6847 56 54.5135 59.6 54.5135 61.4H57V65Z" fill="#C4C4C4" stroke="black"/>
<path d="M63.1427 2H3.85728C0.493567 5.62887 2.45573 8.18557 3.85728 9.01031H5.53914V35.4021C6.88462 41.6701 11.2502 42 13.1075 42H54.7334C59.4426 42 60.6199 37.6014 60.6199 35.4021V9.01031H63.1427C66.5064 5.71134 64.5443 2.9622 63.1427 2Z" fill="#FFC7BA" stroke="black" stroke-width="3"/>
<path d="M63.5714 13C62.5429 13 61 14.2353 61 15.4706V17.9412C61 19.5882 62.7143 20 63.5714 20H91.8571C93.2286 20 93.8571 18.7647 94 17.9412V15.4706C94 14.1529 92.5714 13.2745 91.8571 13H63.5714Z" fill="#FF8AAE" stroke="black" stroke-width="2"/>
<path d="M59.1 18H7.04805L6.99999 34.36C6.99999 34.36 6.49999 39.5 12.7027 40.9924H53.6764C60 40.9924 59.1 34 59.1 34V18Z" fill="#9ADCFF"/>
</svg>
