<svg width="99" height="102" viewBox="0 0 99 102" fill="none" xmlns="http://www.w3.org/2000/svg">
<path d="M22.3314 69.5C23.4981 67.3333 27.2314 63 32.8314 63C38.4314 63 45.1648 67.3333 47.8314 69.5" stroke="#F2EB92" stroke-width="4"/>
<path d="M15.3314 69C17.2072 65.3333 23.2099 58 32.2138 58C41.2177 58 52.0438 65.3333 56.3314 69" stroke="#F2EB92" stroke-width="4"/>
<path d="M8.83142 68C10.7072 64.3333 23.3275 52 32.3314 52C41.3353 52 61.8314 68 75.8314 68" stroke="#F2EB92" stroke-width="4"/>
<path d="M41.3314 53.5C41.3314 53.5 44.8275 48.5 53.8314 48.5C62.8353 48.5 72.8314 69 86.8314 69" stroke="#F2EB92" stroke-width="4"/>
<path d="M32.8314 51.4999C32.8314 51.4999 41.3314 43 59.3314 43.5C67.8314 45.5 64.8314 54 93.8314 69.9998" stroke="#F2EB92" stroke-width="4"/>
<path d="M46.3314 56.561C46.3314 56.561 47.432 54 54.0556 54C60.6791 54 68.0326 69 78.3314 69" stroke="#F2EB92" stroke-width="4"/>
<path d="M4.33136 68.5002C4.19823 65.8634 11.2376 54.535 16.3314 51.5C21.4252 48.465 29.2114 50.4408 32.8314 51" stroke="#F2EB92" stroke-width="4"/>
<path d="M94.5056 0.563754C92.4895 0.260731 24.944 18.6523 23.8686 19.4835L23.8685 19.4836C23.6031 20.2009 23.6031 20.2009 24.2044 20.775C25.5484 20.977 92.8921 4.29242 95.043 2.63011C96.1184 1.7989 95.8497 0.765756 94.5056 0.563754Z" fill="#C4C4C4"/>
<path d="M39.3315 42.4998C55.3315 36.4999 61.8314 34.5 77.8315 52.9999C82.8315 56.4999 93.8315 63.4999 96.3314 69.9999" stroke="#F2EB92" stroke-width="4" stroke-linecap="round" stroke-linejoin="round"/>
<path d="M28.7419 79.1767C27.9169 73.0473 19.6959 65.5693 20.9143 54.6567C21.5446 49.0121 29.1496 39.4768 29.8708 33.0169C31.1469 21.5879 24.248 15.7866 22.0988 8.00003" stroke="#F2EB92" stroke-width="4" stroke-linecap="round"/>
<path d="M34.7419 79.1767C33.9169 73.0473 25.6959 65.5693 26.9143 54.6567C27.5446 49.0121 35.1496 39.4768 35.8708 33.0169C37.1469 21.5879 30.248 15.7866 28.0988 8.00003" stroke="#F2EB92" stroke-width="4" stroke-linecap="round"/>
<path d="M40.7419 79.1767C39.9169 73.0473 31.6959 65.5693 32.9143 54.6567C33.5446 49.0121 41.1496 39.4768 41.8708 33.0169C43.1469 21.5879 36.248 15.7866 34.0988 8.00003" stroke="#F2EB92" stroke-width="4" stroke-linecap="round"/>
<path d="M96.472 8.19069C94.4742 7.78382 26.0681 22.6582 24.9511 23.4326L24.9511 23.4327C24.6489 24.1354 24.6489 24.1354 25.2197 24.7398C26.5515 25.011 94.6679 11.8309 96.9018 10.2821C98.0188 9.50759 97.8038 8.46193 96.472 8.19069Z" fill="#C4C4C4"/>
<path d="M1.33142 67.5C1.05528 67.5 0.831421 67.7239 0.831421 68C0.831421 79.7425 5.30845 87.7897 10.9267 93.0645C16.5302 98.3255 23.2524 100.814 27.7568 101.494C27.7815 101.498 27.8064 101.5 27.8314 101.5H68.8314C78.6557 101.5 85.5422 95.8611 90.1362 88.9004C94.7249 81.9479 97.0695 73.6217 97.8268 68.0676C97.8463 67.9245 97.8031 67.78 97.7081 67.6712C97.6132 67.5624 97.4758 67.5 97.3314 67.5H1.33142Z" fill="#9ADCFF" stroke="black" stroke-linejoin="round"/>
</svg>
