<svg width="192" height="154" viewBox="0 0 192 154" fill="none" xmlns="http://www.w3.org/2000/svg">
<mask id="path-1-inside-1_68_57" fill="white">
<path d="M32.5339 65.6052L19.4196 69.9307C15.7858 71.1292 13.5511 74.1816 14.4072 76.7771L21.1015 97.073L14.5443 99.2358C13.3422 99.6323 12.5903 100.659 12.8736 101.518L15.9632 110.885C16.2464 111.744 17.4617 112.122 18.6639 111.726L25.221 109.563L31.9153 129.859C32.7714 132.454 36.3835 133.578 40.0173 132.38L53.1316 128.054C56.7653 126.856 59 123.803 58.1439 121.208L40.6358 68.1261C39.7797 65.5305 36.1676 64.4066 32.5339 65.6052ZM185.03 43.0041L178.473 45.1668L171.779 24.8709C170.923 22.2754 167.311 21.1515 163.677 22.35L150.563 26.6755C146.929 27.874 144.694 30.9264 145.55 33.5219L163.058 86.6036C163.914 89.1992 167.526 90.3231 171.16 89.1245L184.275 84.799C187.908 83.6005 190.143 80.5481 189.287 77.9526L182.593 57.6567L189.15 55.4939C190.352 55.0974 191.104 54.0704 190.821 53.2117L187.731 43.8444C187.448 42.9857 186.232 42.6076 185.03 43.0041ZM124.586 21.3949L111.472 25.7204C107.838 26.9189 105.603 29.9713 106.459 32.5668L117.273 65.3526L82.3015 76.8873L71.4878 44.1016C70.6317 41.506 67.0195 40.3821 63.3858 41.5806L50.2715 45.9061C46.6377 47.1047 44.4031 50.157 45.2592 52.7526L71.0063 130.814C71.8624 133.409 75.4745 134.533 79.1083 133.335L92.2226 129.009C95.8563 127.811 98.091 124.758 97.2349 122.163L86.4211 89.3771L121.393 77.8424L132.206 110.628C133.062 113.224 136.675 114.348 140.308 113.149L153.423 108.824C157.056 107.625 159.291 104.573 158.435 101.977L132.688 23.9158C131.832 21.3203 128.22 20.1964 124.586 21.3949Z"/>
</mask>
<path d="M32.5339 65.6052L19.4196 69.9307C15.7858 71.1292 13.5511 74.1816 14.4072 76.7771L21.1015 97.073L14.5443 99.2358C13.3422 99.6323 12.5903 100.659 12.8736 101.518L15.9632 110.885C16.2464 111.744 17.4617 112.122 18.6639 111.726L25.221 109.563L31.9153 129.859C32.7714 132.454 36.3835 133.578 40.0173 132.38L53.1316 128.054C56.7653 126.856 59 123.803 58.1439 121.208L40.6358 68.1261C39.7797 65.5305 36.1676 64.4066 32.5339 65.6052ZM185.03 43.0041L178.473 45.1668L171.779 24.8709C170.923 22.2754 167.311 21.1515 163.677 22.35L150.563 26.6755C146.929 27.874 144.694 30.9264 145.55 33.5219L163.058 86.6036C163.914 89.1992 167.526 90.3231 171.16 89.1245L184.275 84.799C187.908 83.6005 190.143 80.5481 189.287 77.9526L182.593 57.6567L189.15 55.4939C190.352 55.0974 191.104 54.0704 190.821 53.2117L187.731 43.8444C187.448 42.9857 186.232 42.6076 185.03 43.0041ZM124.586 21.3949L111.472 25.7204C107.838 26.9189 105.603 29.9713 106.459 32.5668L117.273 65.3526L82.3015 76.8873L71.4878 44.1016C70.6317 41.506 67.0195 40.3821 63.3858 41.5806L50.2715 45.9061C46.6377 47.1047 44.4031 50.157 45.2592 52.7526L71.0063 130.814C71.8624 133.409 75.4745 134.533 79.1083 133.335L92.2226 129.009C95.8563 127.811 98.091 124.758 97.2349 122.163L86.4211 89.3771L121.393 77.8424L132.206 110.628C133.062 113.224 136.675 114.348 140.308 113.149L153.423 108.824C157.056 107.625 159.291 104.573 158.435 101.977L132.688 23.9158C131.832 21.3203 128.22 20.1964 124.586 21.3949Z" fill="#FFC7BA" stroke="#C4C4C4" stroke-width="4" mask="url(#path-1-inside-1_68_57)"/>
<mask id="path-2-inside-2_68_57" fill="white">
<path d="M120.2 28.8761C128.166 28.8761 134.623 22.4121 134.623 14.4381C134.623 6.46404 128.166 0 120.2 0C112.235 0 105.777 6.46404 105.777 14.4381C105.777 22.4121 112.235 28.8761 120.2 28.8761ZM72.6311 95.4928L68.184 105.876H48.0849C42.7754 105.876 38.4695 110.186 38.4695 115.501C38.4695 120.817 42.7754 125.127 48.0849 125.127H71.3571C77.1414 125.127 82.3487 121.686 84.6113 116.377L87.2525 110.205L84.0464 108.31C78.8421 105.232 75.014 100.678 72.6311 95.4928ZM153.854 67.3746H140.624L132.793 51.3574C129.037 43.6721 122.141 38.0533 114.23 36.035L92.8715 29.6762C84.3679 27.6308 75.5128 29.5108 68.5807 34.8318L56.6606 43.9789C52.4448 47.2125 51.6456 53.2524 54.8817 57.4725C58.1179 61.6926 64.1486 62.4837 68.3613 59.2532L80.2874 50.1061C82.5921 48.3344 85.5278 47.6998 87.8805 48.2592L92.2976 49.5737L81.0416 75.86C77.2495 84.7274 80.648 95.1138 88.9442 100.017L114.479 115.107L106.225 141.496C104.638 146.567 107.46 151.967 112.526 153.555C113.485 153.856 114.452 154 115.405 154C119.494 154 123.286 151.362 124.575 147.247L134.082 116.849C135.858 110.602 133.214 103.891 127.58 100.489L109.179 89.6183L118.587 66.0722L124.677 78.534C127.081 83.449 132.165 86.6224 137.631 86.6224H153.854C159.164 86.6224 163.469 82.312 163.469 76.997C163.469 71.682 159.164 67.3746 153.854 67.3746Z"/>
</mask>
<path d="M120.2 28.8761C128.166 28.8761 134.623 22.4121 134.623 14.4381C134.623 6.46404 128.166 0 120.2 0C112.235 0 105.777 6.46404 105.777 14.4381C105.777 22.4121 112.235 28.8761 120.2 28.8761ZM72.6311 95.4928L68.184 105.876H48.0849C42.7754 105.876 38.4695 110.186 38.4695 115.501C38.4695 120.817 42.7754 125.127 48.0849 125.127H71.3571C77.1414 125.127 82.3487 121.686 84.6113 116.377L87.2525 110.205L84.0464 108.31C78.8421 105.232 75.014 100.678 72.6311 95.4928ZM153.854 67.3746H140.624L132.793 51.3574C129.037 43.6721 122.141 38.0533 114.23 36.035L92.8715 29.6762C84.3679 27.6308 75.5128 29.5108 68.5807 34.8318L56.6606 43.9789C52.4448 47.2125 51.6456 53.2524 54.8817 57.4725C58.1179 61.6926 64.1486 62.4837 68.3613 59.2532L80.2874 50.1061C82.5921 48.3344 85.5278 47.6998 87.8805 48.2592L92.2976 49.5737L81.0416 75.86C77.2495 84.7274 80.648 95.1138 88.9442 100.017L114.479 115.107L106.225 141.496C104.638 146.567 107.46 151.967 112.526 153.555C113.485 153.856 114.452 154 115.405 154C119.494 154 123.286 151.362 124.575 147.247L134.082 116.849C135.858 110.602 133.214 103.891 127.58 100.489L109.179 89.6183L118.587 66.0722L124.677 78.534C127.081 83.449 132.165 86.6224 137.631 86.6224H153.854C159.164 86.6224 163.469 82.312 163.469 76.997C163.469 71.682 159.164 67.3746 153.854 67.3746Z" fill="#9ADCFF" stroke="black" stroke-width="2" mask="url(#path-2-inside-2_68_57)"/>
</svg>
